name ../AP_Laxity/ap_45.mot
datacolumns   7
datarows 66
range   7.00000000 7.65000000
cursor 1.0 1.0 0.0
keys m_key
wrap
enforce_loops no
enforce_constraints no
calc_derivatives -1.000000
event_color 0.000000 0.000000 0.000000
endheader
            time femur_r_force_vx femur_r_force_vy femur_r_force_vz femur_r_force_px femur_r_force_py femur_r_force_pz 
      7.00000000     -63.53822913      63.53822913       0.00000000      -0.05123681      -0.49427285       0.00000000 
      7.01000000     -63.64433194      63.64433194       0.00000000      -0.05123681      -0.49427285       0.00000000 
      7.02000000     -63.74973130      63.74973130       0.00000000      -0.05123681      -0.49427285       0.00000000 
      7.03000000     -63.85442459      63.85442459       0.00000000      -0.05123681      -0.49427285       0.00000000 
      7.04000000     -63.95840920      63.95840920       0.00000000      -0.05123681      -0.49427285       0.00000000 
      7.05000000     -64.06168255      64.06168255       0.00000000      -0.05123681      -0.49427285       0.00000000 
      7.06000000     -64.16424206      64.16424206       0.00000000      -0.05123681      -0.49427285       0.00000000 
      7.07000000     -64.26608519      64.26608519       0.00000000      -0.05123681      -0.49427285       0.00000000 
      7.08000000     -64.36720941      64.36720941       0.00000000      -0.05123681      -0.49427285       0.00000000 
      7.09000000     -64.46761220      64.46761220       0.00000000      -0.05123681      -0.49427285       0.00000000 
      7.10000000     -64.56729107      64.56729107       0.00000000      -0.05123681      -0.49427285       0.00000000 
      7.11000000     -64.66624353      64.66624353       0.00000000      -0.05123681      -0.49427285       0.00000000 
      7.12000000     -64.76446713      64.76446713       0.00000000      -0.05123681      -0.49427285       0.00000000 
      7.13000000     -64.86195941      64.86195941       0.00000000      -0.05123681      -0.49427285       0.00000000 
      7.14000000     -64.95871797      64.95871797       0.00000000      -0.05123681      -0.49427285       0.00000000 
      7.15000000     -65.05474039      65.05474039       0.00000000      -0.05123681      -0.49427285       0.00000000 
      7.16000000     -65.15002428      65.15002428       0.00000000      -0.05123681      -0.49427285       0.00000000 
      7.17000000     -65.24456728      65.24456728       0.00000000      -0.05123681      -0.49427285       0.00000000 
      7.18000000     -65.33836704      65.33836704       0.00000000      -0.05123681      -0.49427285       0.00000000 
      7.19000000     -65.43142121      65.43142121       0.00000000      -0.05123681      -0.49427285       0.00000000 
      7.20000000     -65.52372750      65.52372750       0.00000000      -0.05123681      -0.49427285       0.00000000 
      7.21000000     -65.61528359      65.61528359       0.00000000      -0.05123681      -0.49427285       0.00000000 
      7.22000000     -65.70608722      65.70608722       0.00000000      -0.05123681      -0.49427285       0.00000000 
      7.23000000     -65.79613613      65.79613613       0.00000000      -0.05123681      -0.49427285       0.00000000 
      7.24000000     -65.88542808      65.88542808       0.00000000      -0.05123681      -0.49427285       0.00000000 
      7.25000000     -65.97396084      65.97396084       0.00000000      -0.05123681      -0.49427285       0.00000000 
      7.26000000     -66.06173223      66.06173223       0.00000000      -0.05123681      -0.49427285       0.00000000 
      7.27000000     -66.14874004      66.14874004       0.00000000      -0.05123681      -0.49427285       0.00000000 
      7.28000000     -66.23498213      66.23498213       0.00000000      -0.05123681      -0.49427285       0.00000000 
      7.29000000     -66.32045634      66.32045634       0.00000000      -0.05123681      -0.49427285       0.00000000 
      7.30000000     -66.40516056      66.40516056       0.00000000      -0.05123681      -0.49427285       0.00000000 
      7.31000000     -66.48909266      66.48909266       0.00000000      -0.05123681      -0.49427285       0.00000000 
      7.32000000     -66.57225058      66.57225058       0.00000000      -0.05123681      -0.49427285       0.00000000 
      7.33000000     -66.65463223      66.65463223       0.00000000      -0.05123681      -0.49427285       0.00000000 
      7.34000000     -66.73623557      66.73623557       0.00000000      -0.05123681      -0.49427285       0.00000000 
      7.35000000     -66.81705858      66.81705858       0.00000000      -0.05123681      -0.49427285       0.00000000 
      7.36000000     -66.89709924      66.89709924       0.00000000      -0.05123681      -0.49427285       0.00000000 
      7.37000000     -66.97635555      66.97635555       0.00000000      -0.05123681      -0.49427285       0.00000000 
      7.38000000     -67.05482556      67.05482556       0.00000000      -0.05123681      -0.49427285       0.00000000 
      7.39000000     -67.13250731      67.13250731       0.00000000      -0.05123681      -0.49427285       0.00000000 
      7.40000000     -67.20939887      67.20939887       0.00000000      -0.05123681      -0.49427285       0.00000000 
      7.41000000     -67.28549832      67.28549832       0.00000000      -0.05123681      -0.49427285       0.00000000 
      7.42000000     -67.36080377      67.36080377       0.00000000      -0.05123681      -0.49427285       0.00000000 
      7.43000000     -67.43531335      67.43531335       0.00000000      -0.05123681      -0.49427285       0.00000000 
      7.44000000     -67.50902522      67.50902522       0.00000000      -0.05123681      -0.49427285       0.00000000 
      7.45000000     -67.58193752      67.58193752       0.00000000      -0.05123681      -0.49427285       0.00000000 
      7.46000000     -67.65404846      67.65404846       0.00000000      -0.05123681      -0.49427285       0.00000000 
      7.47000000     -67.72535624      67.72535624       0.00000000      -0.05123681      -0.49427285       0.00000000 
      7.48000000     -67.79585908      67.79585908       0.00000000      -0.05123681      -0.49427285       0.00000000 
      7.49000000     -67.86555523      67.86555523       0.00000000      -0.05123681      -0.49427285       0.00000000 
      7.50000000     -67.93444297      67.93444297       0.00000000      -0.05123681      -0.49427285       0.00000000 
      7.51000000     -68.00252056      68.00252056       0.00000000      -0.05123681      -0.49427285       0.00000000 
      7.52000000     -68.06978634      68.06978634       0.00000000      -0.05123681      -0.49427285       0.00000000 
      7.53000000     -68.13623861      68.13623861       0.00000000      -0.05123681      -0.49427285       0.00000000 
      7.54000000     -68.20187573      68.20187573       0.00000000      -0.05123681      -0.49427285       0.00000000 
      7.55000000     -68.26669606      68.26669606       0.00000000      -0.05123681      -0.49427285       0.00000000 
      7.56000000     -68.33069800      68.33069800       0.00000000      -0.05123681      -0.49427285       0.00000000 
      7.57000000     -68.39387996      68.39387996       0.00000000      -0.05123681      -0.49427285       0.00000000 
      7.58000000     -68.45624035      68.45624035       0.00000000      -0.05123681      -0.49427285       0.00000000 
      7.59000000     -68.51777763      68.51777763       0.00000000      -0.05123681      -0.49427285       0.00000000 
      7.60000000     -68.57849028      68.57849028       0.00000000      -0.05123681      -0.49427285       0.00000000 
      7.61000000     -68.63837677      68.63837677       0.00000000      -0.05123681      -0.49427285       0.00000000 
      7.62000000     -68.69743563      68.69743563       0.00000000      -0.05123681      -0.49427285       0.00000000 
      7.63000000     -68.75566538      68.75566538       0.00000000      -0.05123681      -0.49427285       0.00000000 
      7.64000000     -68.81306457      68.81306457       0.00000000      -0.05123681      -0.49427285       0.00000000 
      7.65000000     -68.86963179      68.86963179       0.00000000      -0.05123681      -0.49427285       0.00000000 
